<?xml version="1.0" encoding="UTF-8" standalone="no"?><!-- Generator: Gravit.io --><svg xmlns="http://www.w3.org/2000/svg" xmlns:xlink="http://www.w3.org/1999/xlink" style="isolation:isolate" viewBox="0 0 24 24" width="24pt" height="24pt"><defs><clipPath id="_clipPath_eUltgj4YR2iWLe4vLeaRBsbBIvHgVKnQ"><rect width="24" height="24"/></clipPath></defs><g clip-path="url(#_clipPath_eUltgj4YR2iWLe4vLeaRBsbBIvHgVKnQ)"><path d=" M 6 4 L 18 4 L 18 5 L 21 5 L 21 7 L 18 7 L 18 9 L 21 9 L 21 11 L 18 11 L 18 13 L 21 13 L 21 15 L 18 15 L 18 17 L 21 17 L 21 19 L 18 19 L 18 20 L 6 20 L 6 19 L 3 19 L 3 17 L 6 17 L 6 15 L 3 15 L 3 13 L 6 13 L 6 11 L 3 11 L 3 9 L 6 9 L 6 7 L 3 7 L 3 5 L 6 5 L 6 4 Z  M 11 15 L 11 18 L 12 18 L 12 15 L 11 15 Z  M 13 15 L 13 18 L 14 18 L 14 15 L 13 15 Z  M 15 15 L 15 18 L 16 18 L 16 15 L 15 15 L 15 15 Z " fill="rgb(0,150,136)"/></g></svg>