<?xml version="1.0" encoding="UTF-8" standalone="no"?><!-- Generator: Gravit.io --><svg xmlns="http://www.w3.org/2000/svg" xmlns:xlink="http://www.w3.org/1999/xlink" style="isolation:isolate" viewBox="0 0 24 24" width="24pt" height="24pt"><defs><clipPath id="_clipPath_pSSRo2fGe4sLFg75txLXeIfI7xia3zjl"><rect width="24" height="24"/></clipPath></defs><g clip-path="url(#_clipPath_pSSRo2fGe4sLFg75txLXeIfI7xia3zjl)"><clipPath id="_clipPath_av9zy4GUU5f0aPqGctURXzIGRewjbhn1"><rect x="0" y="0" width="24" height="24" transform="matrix(1,0,0,1,0,0)" fill="rgb(255,255,255)"/></clipPath><g clip-path="url(#_clipPath_av9zy4GUU5f0aPqGctURXzIGRewjbhn1)"><g><clipPath id="_clipPath_BdWe18xbnxcVEVJx8IdTigcAtTlVjqpK"><rect x="0" y="0" width="24" height="24" transform="matrix(1,0,0,1,0,0)" fill="rgb(255,255,255)"/></clipPath><g clip-path="url(#_clipPath_BdWe18xbnxcVEVJx8IdTigcAtTlVjqpK)"><g><g><path d=" M 3 4 L 19 4 C 20.105 4 21 4.895 21 6 L 21 10.82 C 20 9.85 18.7 9.23 17.31 9.06 L 19 8 L 19 6 L 11 11 L 3 6 L 3 8 L 10.62 12.76 C 10.21 13.62 10 14.55 10 15.5 C 10 17.18 10.65 18.79 11.81 20 L 3 20 C 1.895 20 1 19.105 1 18 L 1 6 C 1 4.89 1.89 4 3 4 Z  M 16.5 11 C 19 11 21 13 21 15.5 C 21 16.38 20.75 17.21 20.31 17.9 L 23.39 21 L 22 22.39 L 18.88 19.32 C 18.19 19.75 17.37 20 16.5 20 C 14 20 12 18 12 15.5 C 12 13 14 11 16.5 11 Z  M 16.5 13 C 15.119 13 14 14.119 14 15.5 C 14 16.881 15.119 18 16.5 18 C 17.881 18 19 16.881 19 15.5 C 19 14.119 17.881 13 16.5 13 Z " fill="rgb(151,67,255)"/></g></g></g></g></g></g></svg>