<?xml version="1.0" encoding="UTF-8" standalone="no"?><!-- Generator: Gravit.io --><svg xmlns="http://www.w3.org/2000/svg" xmlns:xlink="http://www.w3.org/1999/xlink" style="isolation:isolate" viewBox="0 0 24 24" width="24pt" height="24pt"><defs><clipPath id="_clipPath_4iaEPiON0AxGYUAkOqtTHicvya7CeoPz"><rect width="24" height="24"/></clipPath></defs><g clip-path="url(#_clipPath_4iaEPiON0AxGYUAkOqtTHicvya7CeoPz)"><clipPath id="_clipPath_SBrOyU2AJoSNHDqRxj2hMwccucAD4dA7"><rect x="0" y="0" width="24" height="24" transform="matrix(1,0,0,1,0,0)" fill="rgb(255,255,255)"/></clipPath><g clip-path="url(#_clipPath_SBrOyU2AJoSNHDqRxj2hMwccucAD4dA7)"><g><path d=" M 8 4 C 5.239 4 3 6.239 3 9 L 3 18 L 1 18 L 1 20 L 21 20 C 22.105 20 23 19.105 23 18 L 23 9 C 23 6.239 20.761 4 18 4 L 8 4 L 8 4 Z  M 8 6 C 9.657 6 11 7.343 11 9 L 11 18 L 5 18 L 5 9 C 5 7.343 6.343 6 8 6 Z  M 13 13 L 13 7 L 17 7 L 17 9 L 15 9 L 15 13 L 13 13 L 13 13 L 13 13 Z " fill="rgb(0,187,255)"/></g></g></g></svg>