<?xml version="1.0" encoding="UTF-8" standalone="no"?><!-- Generator: Gravit.io --><svg xmlns="http://www.w3.org/2000/svg" xmlns:xlink="http://www.w3.org/1999/xlink" style="isolation:isolate" viewBox="0 0 24 24" width="24pt" height="24pt"><defs><clipPath id="_clipPath_emRcAkkGld7GdmTKKoyKXUz0ZYuEVwBW"><rect width="24" height="24"/></clipPath></defs><g clip-path="url(#_clipPath_emRcAkkGld7GdmTKKoyKXUz0ZYuEVwBW)"><path d=" M 2 12 C 2 16.97 6.03 21 11 21 C 13.39 21 15.68 20.06 17.4 18.4 L 15.9 16.9 C 14.63 18.25 12.86 19 11 19 C 4.76 19 1.64 11.46 6.05 7.05 C 10.46 2.64 18 5.77 18 12 L 15 12 L 19 16 L 19.1 16 L 23 12 L 20 12 C 20 7.03 15.97 3 11 3 C 6.03 3 2 7.03 2 12 Z " fill="rgb(255,0,255)"/></g></svg>